<?xml version="1.0" standalone="no"?>
<!DOCTYPE svg PUBLIC "-//W3C//DTD SVG 1.1//EN" "http://www.w3.org/Graphics/SVG/1.1/DTD/svg11.dtd">
<svg xmlns="http://www.w3.org/2000/svg">
<metadata>Copyright (C) 2017 by original authors @ fontello.com</metadata>
<defs>
<font id="jolyy" horiz-adv-x="1000" >
<font-face font-family="jolyy" font-weight="400" font-stretch="normal" units-per-em="1000" ascent="850" descent="-150" />
<missing-glyph horiz-adv-x="1000" />
<glyph glyph-name="cash-minus" unicode="&#xe800;" d="M481 417v149c15-5 28-15 37-29 8-12 25-15 37-7 12 8 15 24 7 36-19 29-48 48-81 55v42c0 14-11 26-26 26-14 0-26-12-26-26v-42c-58-12-102-64-102-126 0-61 44-113 102-125v-150c-15 6-28 16-37 30-8 12-24 15-37 7-12-8-15-24-7-36 19-29 48-48 81-55v-42c0-15 12-26 26-26 15 0 26 11 26 26v42c59 12 103 64 103 125 0 62-44 114-103 126l0 0z m-102 78c0 33 21 61 50 71v-141c-29 10-50 38-50 70l0 0z m102-275v142c29-10 50-38 50-71 0-32-21-60-50-71l0 0z m0 0m385 60c10 36 16 74 16 113 0 236-192 427-427 427-235 0-426-191-426-427 0-235 191-426 426-426 41 0 80 6 118 16 37-62 106-103 183-103 119 0 215 96 215 215 0 79-42 147-105 185z m-411-278c-216 0-391 176-391 391 0 216 175 392 391 392s391-176 391-392c0-33-4-66-12-97-24 9-50 14-78 14-118 0-215-96-215-215 0-28 6-55 16-79-33-9-67-14-102-14z m252 76c0-3-1-6-3-8-2-2-5-3-8-3h-80c-3 0-6 1-9 3-2 2-3 5-3 8 0 3 1 6 3 9 3 2 6 3 9 3h80c3 0 6-1 8-3 2-3 3-6 3-9z m59 33c-7 0-13 1-19 4-6 2-10 6-14 10-4 5-7 10-9 17-2 6-3 13-3 20 0 7 1 14 3 20 2 6 5 12 9 16 4 5 8 8 14 11 5 3 12 4 19 4 8 0 14-1 20-4 5-3 10-6 14-11 4-4 7-10 9-16 2-6 3-13 3-20 0-7-1-14-3-20-2-7-5-12-9-17-4-4-9-8-14-10-6-3-12-4-20-4z m0 19c8 0 14 3 18 9 4 5 6 13 6 24 0 9-2 17-6 22-4 6-10 8-18 8-8 0-14-2-17-8-4-5-6-13-6-22 0-11 2-19 6-24 3-6 9-9 17-9z m6-141c-1-3-3-5-6-6-2-1-5-1-7 0-3 1-6 3-7 6-1 3-2 6-1 9l2 2 108 207c1 3 3 5 5 6 3 1 6 1 8 0 3-1 5-3 7-6 1-2 1-5 0-8 0-1 0-2-1-3l-108-207z m94-9c-7 0-14 2-20 4-5 3-10 7-14 11-3 5-6 10-8 17-2 6-3 12-3 20 0 7 1 14 3 20 2 6 5 12 8 16 4 5 9 8 14 11 6 3 13 4 20 4 7 0 14-1 19-4 6-3 11-6 15-11 4-4 6-10 8-16 2-6 3-13 3-20 0-8-1-14-3-20-2-7-4-12-8-17-4-4-9-8-15-11-5-2-12-4-19-4z m0 20c8 0 14 3 18 9 4 5 5 13 5 23 0 10-1 17-5 23-4 5-10 8-18 8-8 0-14-3-18-8s-5-13-5-23c0-10 1-18 5-23 4-6 10-9 18-9z" horiz-adv-x="1000" />

<glyph glyph-name="cash-sum" unicode="&#xe801;" d="M481 417v149c15-5 28-15 37-29 8-12 25-15 37-7 12 8 15 24 7 36-19 29-48 48-81 55v42c0 14-11 26-26 26-14 0-26-12-26-26v-42c-58-12-102-64-102-126 0-61 44-113 102-125v-150c-15 6-28 16-37 30-8 12-24 15-37 7-12-8-15-24-7-36 19-29 48-48 81-55v-42c0-15 12-26 26-26 15 0 26 11 26 26v42c59 12 103 64 103 125 0 62-44 114-103 126l0 0z m-102 78c0 33 21 61 50 71v-141c-29 10-50 38-50 70l0 0z m102-275v142c29-10 50-38 50-71 0-32-21-60-50-71l0 0z m0 0m385 60c10 36 16 74 16 113 0 236-192 427-427 427-235 0-426-191-426-427 0-235 191-426 426-426 41 0 80 6 118 16 37-62 106-103 183-103 119 0 215 96 215 215 0 79-42 147-105 185z m-411-278c-216 0-391 176-391 391 0 216 175 392 391 392s391-176 391-392c0-33-4-66-12-97-24 9-50 14-78 14-118 0-215-96-215-215 0-28 6-55 16-79-33-9-67-14-102-14z m384-33h-165c-5 0-10 3-12 7-2 5-1 10 2 13l94 106-94 106c-3 3-4 9-2 13 2 5 7 8 12 8h165c7 0 13-6 13-13v-27c0-7-6-12-13-12-7 0-12 5-12 12v15h-126l83-94c4-4 4-11 0-16l-83-93h126v14c0 7 5 13 12 13 7 0 13-6 13-13v-27c0-7-6-12-13-12z" horiz-adv-x="1000" />

<glyph glyph-name="coin" unicode="&#xe802;" d="M500-147v24l0-24c-274 0-497 223-497 497 0 274 223 497 497 497 274 0 497-223 497-497 0-274-223-497-497-497l0 0z m0 946c-248 0-449-201-449-449 0-248 201-449 449-449h0c248 0 449 201 449 449 0 248-201 449-449 449l0 0z m0 0m164-579c0 78-63 144-144 153v212c27-4 52-17 70-37 9-10 24-11 34-2 9 9 10 24 1 34-27 30-64 49-105 54v48c0 13-11 24-24 24-13 0-24-11-24-24v-50c-77-12-136-76-136-152 0-76 59-139 136-151v-213c-50 12-88 54-88 104 0 13-11 24-24 24-13 0-24-11-24-24 0-76 59-140 136-152v-50c0-13 11-24 24-24 13 0 24 11 24 24v49c81 9 144 74 144 153z m-280 260c0 50 38 92 88 104v-207c-50 12-88 54-88 103z m136-365v210c54-9 96-53 96-105 0-53-42-97-96-105z" horiz-adv-x="1000" />

<glyph glyph-name="face" unicode="&#xe803;" d="M790 346c-6 12-13 22-21 33-5 7-10 15-16 23-12 17-27 31-39 48-15 22-26 47-25 73 1 9 2 17 3 25 2 14 3 28 3 42 1 14 1 28 1 42 0 9 1 17 1 26 0 6 0 13-1 19 10 20 16 41 19 64 1 18 0 40-9 56 6-18 3-41-3-59-7-25-20-46-34-67-9-15-23-29-36-42-37-39-78-74-116-112-38-39-75-79-106-123-31-43-56-90-74-140-9-26-16-52-20-79-4-19-6-39-5-58 0-26 5-52 13-76 8-23 20-45 38-61 19-16 43-21 66-11 17 9 30 23 42 39-14-12-28-24-46-29-21-6-40 3-53 20-14 19-21 43-25 66-4 25-4 52 0 77 8 50 25 99 48 144 50 98 126 177 199 257 37 39 75 78 99 126 1 3 2 5 3 7 0-8 0-15 0-22-3-26-4-53-6-79-1-12-3-25-5-38-2-7-3-15-3-23 0-47 34-83 60-119 0 0 0 0 0 0 3-3 5-6 7-10 10-15 22-31 28-48 2-5 4-11 2-16-2-5-7-8-12-11-10-4-20-7-30-9-9-2-16-5-23-11-7-8-11-18-12-29-1-10 1-20 5-30 3-8 5-17 2-25-7-1-14-1-20-2-6 0-11-1-17-1-4 0-9-1-12-5-10-13 10-21 18-27 5-3 11-6 16-9 0-5 0-9-3-13-2-3-5-5-8-7-9-7-15-16-19-26-5-16-3-31-3-47 0-13 1-26-2-39-1-6-2-11-6-15-4-4-9-6-14-7-17-5-37-5-55-6-6-1-11-1-17-1-6 1-12-1-18 1 0 0 1 0 1 0-6 2-13 3-20 3-10-1-16-7-23-14-8-8-11-20-16-30-5-10-10-20-14-30-4-10-7-20-7-31-1-21 28-30 39-12 4 6 3 12 5 18 1 8 4 15 7 22 5 12 10 24 15 36 0 1 1 1 1 1 0 0 0 0 1 0 8-2 17-2 26-1 23 0 46 2 69 7 19 4 39 11 49 28 11 17 11 39 10 58 0 8-1 16-1 24-1 7-2 14-1 21 2 9 6 15 13 20 9 8 16 18 17 29 1 6 0 12-1 18-1 5-2 9-7 11-1 1-2 2-3 3 1 0 2 0 4 0 2 0 5 0 7 1 10 3 12 19 12 28 0 10-2 20-7 29-6 14-5 37 13 42 18 5 44 10 54 28 7 11 3 24-2 35z m-256-380c-1 0-1 0-2 0 1 0 2 0 2 0z m111 855c11-17 16-39 17-59 2-26-2-52-12-75-7-17-18-31-30-44-19-20-39-37-60-55-42-36-85-72-124-111-38-39-73-80-104-124-15-22-29-44-42-67 23 100 83 187 156 258 29 29 61 55 94 81 16 13 32 26 48 39 7 7 14 13 20 20 2 2 6 6 6 8 6 9 12 17 16 26 6 12 10 24 12 37 5 22 6 45 3 66z m-81 0c7-18 11-39 11-59 1-13-1-25-3-38-3-11-8-21-14-31-4-5-8-10-13-14-9-10-19-18-28-27-20-19-40-38-60-57-76-75-150-158-194-256-17-38-31-79-37-120-2-20-4-41-4-62 0-17 1-33 2-50-7 21-14 43-16 65-3 26-5 51-2 77 4 54 21 105 45 153 48 97 125 177 209 244 15 12 30 23 45 35 7 5 14 10 21 16 3 2 7 5 9 8 1 0 2 1 2 1 0 0 2 2 1 1 27 30 29 76 26 114z" horiz-adv-x="1000" />

<glyph glyph-name="hair" unicode="&#xe804;" d="M647 142c-27 0-53-8-74-22l-8 211 327 353-329-303-18 444-19-478-153-142c-5 25-17 49-37 68-25 25-58 39-94 39-36 0-69-14-95-39-52-52-52-137 0-189 26-25 59-39 95-39s69 14 94 39c1 1 2 2 3 3 0 0 0 0 0 0l0 0c1 1 2 2 3 3l182 197-10-271c-1-2-1-5-1-8 0-74 60-133 134-133s134 59 134 133-60 134-134 134z m-454-13c-13 13-21 31-21 49 0 19 8 37 21 50 13 13 30 20 49 20 18 0 36-7 49-20 13-13 20-31 20-50 0-17-6-34-18-47 0 0-1 0-1 0 0-1 0-1 0-1-1 0-1 0-1-1-13-13-31-20-49-20-19 0-36 7-49 20z m454-190c-38 0-70 31-70 69 0 0 0 0 0 1 0 0 0 1 1 1 1 38 31 68 69 68 38 0 69-31 69-70 0-38-31-69-69-69z" horiz-adv-x="1000" />

<glyph glyph-name="heart" unicode="&#xe805;" d="M500 707c50 67 136 116 227 116 152 0 269-123 269-275s-93-476-478-666c-7-3-13-5-18-5h1c-6 0-12 2-18 5-386 190-479 514-479 666s117 275 269 275c91 0 177-49 228-116h-1l0 0z" horiz-adv-x="1000" />

<glyph glyph-name="home-res" unicode="&#xe806;" d="M392 525c0-22-18-40-41-40-22 0-40 18-40 40 0 22 18 40 40 40 23 0 41-18 41-40z m65 40c-22 0-40-18-40-40 0-22 18-40 40-40 22 0 40 18 40 40 0 22-18 40-40 40z m105 0c-22 0-40-18-40-40 0-22 18-40 40-40 22 0 40 18 40 40 0 22-18 40-40 40z m106 0c-23 0-41-18-41-40 0-22 18-40 41-40s40 18 40 40c0 22-18 40-40 40z m105 0c-22 0-40-18-40-40 0-22 18-40 40-40 22 0 40 18 40 40 0 22-18 40-40 40z m-632-102c-22 0-40-18-40-40s18-40 40-40 40 18 40 40-18 40-40 40z m105 0c-22 0-40-18-40-40s18-40 40-40 40 18 40 40-18 40-40 40z m105 0c-22 0-40-18-40-40s18-40 40-40c23 0 41 18 41 40s-18 40-41 40z m106 0c-22 0-40-18-40-40s18-40 40-40c22 0 40 18 40 40s-18 40-40 40z m105 0c-22 0-40-18-40-40s18-40 40-40c22 0 40 18 40 40s-18 40-40 40z m106 0c-23 0-41-18-41-40s18-40 41-40 40 18 40 40-18 40-40 40z m105 0c-22 0-40-18-40-40s18-40 40-40c22 0 40 18 40 40s-18 40-40 40z m-632-103c-22 0-40-18-40-40 0-22 18-40 40-40s40 18 40 40c0 22-18 40-40 40z m105 0c-22 0-40-18-40-40 0-22 18-40 40-40s40 18 40 40c0 22-18 40-40 40z m105 0c-22 0-40-18-40-40 0-22 18-40 40-40 23 0 41 18 41 40 0 22-18 40-41 40z m106 0c-22 0-40-18-40-40 0-22 18-40 40-40 22 0 40 18 40 40 0 22-18 40-40 40z m105 0c-22 0-40-18-40-40 0-22 18-40 40-40 22 0 40 18 40 40 0 22-18 40-40 40z m-421-105c-22 0-40-18-40-40s18-41 40-41 40 18 40 41-18 40-40 40z m105 0c-22 0-40-18-40-40s18-41 40-41 40 18 40 41-18 40-40 40z m725-148c0-113-92-205-205-205-76 0-143 42-178 105h-539c-11 0-19 8-19 19v703c0 11 8 19 19 19h213v31c0 10 8 19 19 19 10 0 19-9 19-19v-31h328v31c0 10 8 19 19 19 10 0 19-9 19-19v-31h213c10 0 19-8 19-19v-466c44-37 73-93 73-156z m-400-62c-6 19-10 40-10 62 0 73 39 138 97 174-18 4-31 20-31 39 0 22 18 40 41 40s40-18 40-40c0-6-2-13-5-18 10 3 21 6 31 7-1 4-1 7-1 11 0 22 18 40 40 40 22 0 40-18 40-40 0-5-1-9-2-13 17-4 34-10 49-18v421h-194v-33c0-10-9-19-19-19-11 0-19 9-19 19v33h-328v-33c0-10-9-19-19-19-11 0-19 9-19 19v33h-194v-665h503z m362 62c0 92-75 167-167 167-92 0-167-75-167-167 0-92 75-167 167-167 92 0 167 75 167 167z m-91-37l-57 46v120c0 10-9 19-19 19-11 0-19-9-19-19v-129c0 0 0 0 0 0 0 0 0-1 0-1 0-1 0-2 0-2 0 0 0 0 0-1 0 0 1 0 1-1 0 0 0 0 0 0 0-1 0-1 0-2 0 0 0 0 0 0 1-1 1-1 1-1 0 0 0-1 0-1 0 0 0 0 1-1 0 0 0 0 0 0 0-1 0-1 1-1 0 0 0-1 0-1 1 0 1-1 1-1 0 0 1 0 1-1 0 0 1 0 1-1 0 0 0 0 0 0l64-52c3-2 8-4 12-4 5 0 11 3 15 7 6 8 5 20-3 27z" horiz-adv-x="1000" />

<glyph glyph-name="home-rev" unicode="&#xe807;" d="M500-98c-78 0-155 21-223 60l-189-55c-10-3-20 0-27 7-7 7-10 17-8 27l54 195c-36 65-55 139-55 214 0 247 201 448 448 448s448-201 448-448-201-448-448-448z m-219 118c5 0 10-2 15-4 61-38 132-58 204-58 216 0 392 176 392 392s-176 392-392 392c-216 0-392-176-392-392 0-69 18-137 53-196 4-7 5-14 3-22l-44-158 153 45c3 0 5 1 8 1z m471 476c0 15-12 28-28 28h-448c-15 0-28-13-28-28s13-28 28-28h448c16 0 28 12 28 28z m0-150c0 15-12 27-28 27h-448c-15 0-28-12-28-27s13-28 28-28h448c16 0 28 12 28 28z m-120-151c0 16-12 28-28 28h-328c-15 0-28-12-28-28 0-15 13-28 28-28h328c16 0 28 13 28 28z" horiz-adv-x="1000" />

<glyph glyph-name="home-serv" unicode="&#xe808;" d="M679 261l149-149c5-6 5-15 0-20-3-3-7-4-10-4-4 0-8 1-10 4l-149 149c-6 5-6 14 0 20 5 5 14 5 20 0z m-172 151c-5-5-5-14 0-20l37-37c3-3 7-4 10-4 4 0 8 1 10 4 6 6 6 14 0 20l-37 37c-5 6-14 6-20 0z m-37 37c-5-5-5-14 0-20l10-9c2-3 6-4 10-4 3 0 7 1 10 4 5 5 5 14 0 20l-10 9c-5 6-14 6-20 0z m472 43l-211-210 154-154c10-10 8-26-6-50-11-19-27-39-46-59-3-3-59-58-93-58-6 0-12 1-16 5l-154 155-212-213c-16-16-37-24-60-24-23 0-44 8-60 24l-46 47-153 153c-7 7-7 18 0 25 7 6 18 6 25 0l148-149 37 38-148 148c-7 6-7 17 0 24 6 7 17 7 24 0l148-148 55 55-148 148c-7 7-7 18 0 25 7 6 18 6 25 0l148-148 54 54-148 148c-7 7-7 18 0 25 7 7 18 7 25 0l148-148 27 27-1 1c0 0 0 0 0 0 0 0 0 0 0 0l-141 140c0 0 0 0 0 0 0 0 0 0 0 0-4 5-8 13-4 27 0 1 1 1 1 2l-75 75c-30 30-57 75-69 112 0 0 0 0 0 0 0 0 0 0 0 0-3 8-5 16-6 23-2 13 2 33 30 50 24 14 55 17 82 8l2-1c13-4 26-10 39-17 0 0 0 0 0 0 1 0 1 0 1-1 26-14 51-32 74-55l58-58c12 4 22 3 29-3 0 0 0 0 0 0l141-142 25 25-148 148c-7 7-7 18 0 25 7 7 18 7 25 0l148-148 55 54-149 149c-6 6-6 17 1 24 6 7 17 7 24 0l148-148 55 55-148 148c-7 7-7 18 0 25 7 6 18 6 25 0l148-149 37 37-148 149c-7 6-7 17 0 24 6 7 17 7 24 0l148-148 0 0 52-51c16-16 24-37 24-60 0-22-8-44-24-60z m-424-279c9 2 35 18 69 52 34 34 50 60 52 69l-21 21c-2-3-4-7-6-10-11-18-28-38-48-57-14-15-43-42-67-54l21-21z m-290 353c25-6 56 5 69 18 11 11 17 23 16 32-1 3-2 7-8 10-12 7-24 12-36 17l-2 0c-20 7-42 5-59-6-11-7-17-14-16-21 1-6 3-12 5-19 5-16 16-27 31-31z m123-161c13 8 31 22 53 43 21 22 35 40 43 53l-75 75c-11 10-21 19-32 28-3-14-10-28-23-40-15-15-45-28-74-28-5 0-11 1-17 2 10-15 22-29 33-41l92-92z m124-150c9 3 36 19 69 53 34 33 50 60 53 69l-120 119c-12-25-38-53-53-68-15-15-43-41-68-53l119-120z m70-110l-45 45c0 0 0 0 0 0 0 0 0 0 0 0l-16 17-119-118c0 0 0 0 0 0 0-1 0-1 0-1l-129-128 27-27c19-19 51-19 70 0l212 212z m318-35l-203 203c-12-25-38-53-53-68-20-19-40-36-57-47-3-2-7-4-11-6l203-203c9 2 37 17 71 50 33 34 48 62 50 71z m68 442c0 13-5 26-14 35l-27 27-49-50c0 0 0 0 0 0 0 0 0 0 0 0l-196-196 17-16c0 0 0 0 0 0 0 0 0 0 0 0l45-45 210 210c9 9 14 22 14 35z" horiz-adv-x="1000" />

<glyph glyph-name="map-pin" unicode="&#xe809;" d="M500 800c151 0 275-124 275-275 0-67-47-204-122-360-33-68-69-133-101-184-25-40-41-62-52-74-10 12-27 34-52 74-32 51-68 116-101 184-75 156-122 293-122 360 0 151 124 275 275 275m0 47c-178 0-322-144-322-322 0-178 262-675 322-675 60 0 322 497 322 675 0 178-144 322-322 322l0 0z m0-465c-82 0-150 67-150 150s68 149 150 149 150-67 150-149-67-150-150-150z m0 252c-57 0-103-46-103-102s46-103 103-103c57 0 103 46 103 103s-46 102-103 102z" horiz-adv-x="1000" />

<glyph glyph-name="massage" unicode="&#xe80a;" d="M996 103c-49 4-81 45-123 65-19 8-38 13-59 12-26 0-50-9-73-20-24-11-47-25-72-34-26-8-52-10-78-5-54 11-104 33-156 49-26 8-53 14-80 14-25 0-52-1-76-8-11-4-21-9-27-18-6-10-8-22-3-33 3-9 10-16 18-22 3-3 7-6 12-8 5-2 11-3 16-4 29-7 59-15 88-22 33-9 67-18 99-31-24-6-49-10-73-14-24-4-48-7-72-10-30-4-61-7-91-10 34-1 68 0 102 0 27 1 54 2 80 3 14 1 28 2 42 3 12 1 26 3 38 7 8 2 20 8 19 18 0 0 0 0 0 0-1 1 0 4 0 6-1 3-3 6-5 8-4 6-12 11-18 14-18 11-38 19-57 28-37 15-75 29-113 43 12 2 24 3 36 3 12-1 25-3 37-5 26-5 52-12 78-19 26-7 53-14 79-19 27-5 54-8 80-2 25 6 47 17 69 30 23 13 45 28 70 37 20 7 40 10 60 7 25-5 47-17 69-31 14-9 29-18 45-24 13-5 27-8 41-8-1 0-1 0-2 0-2 0 1 0 0 0z m-494-58c-1 0-1 0-1-1 0 1 0 1 1 1 0 0-1 0 0 0z m-31 438c-16-44-32-88-51-130-5-12-10-24-17-35-6-11-16-20-25-29-19-18-39-35-59-52-12-10-23-20-35-30 28 29 56 58 82 88 8 9 18 19 23 30 5 12 9 25 13 38 7 25 13 50 19 75 3 12 6 24 9 35 2 8 3 16 5 23 4 10 15 15 25 11 10-3 15-14 11-24z m252-283c-25 22-48 46-68 72-9 12-17 25-22 39-4 11-7 22-10 33-5 20-11 40-16 61-8 31-17 62-29 92-11-34-22-68-35-102-6-17-13-33-20-49-5-12-10-23-17-33-1-1-3-4-5-5-2-3 2-12 3-14 5-17 14-33 22-49 12-24 25-48 38-71-12 14-23 28-34 43-18 22-36 46-49 71-30-27-62-52-95-74 5 6 10 13 16 19 27 32 56 64 81 98 0 0 0 0 0 1-1-2 0-1 0 0 1 1 1 2 2 4 1 4 3 8 4 12 3 9 6 18 9 27 14 45 26 90 39 134 4 11 7 23 10 34 1 2 1 4 2 6 3 8 11 15 20 15 24 0 38-28 46-47 10-25 17-51 23-77 8-35 13-70 18-106 1-3 2-7 2-11 2-11 6-22 11-32 12-24 27-47 41-70 4-7 8-14 13-21z m-491-117c1 17-29 49-34 54-1 2-14 18-24 22-15 6-49 15-75 15-8 0-15-1-21-3l0 0-1 0-1-1 0 0 0 0-1 0c-3-2-7-4-10-6-6-5-12-10-17-16-10-13-18-28-19-46 0-2-1-4 0-7l0-4c0-1 0-2 1-3l0-3 1-1 0 0 0-1 0-1 0 0c1-3 2-5 3-7 4-8 9-15 16-21 7-6 14-11 22-14 8-4 16-6 24-8 9-1 17-2 25-2 4 0 8 0 12 0 4 0 8 1 12 1 10 2 20 5 30 9 32 10 56 30 57 43z m-89-40c-3 0-7 0-10 0-4 0-8 0-12 1-7 0-14 2-21 3-14 4-28 10-39 19-5 5-9 10-12 17-1 1-1 3-2 4l0 1 0 0-1 1-1 3c0 1 0 2 0 2l0 3c-1 1 0 3-1 4 1 7 2 14 5 21 2 6 5 13 9 19 4 5 8 11 13 15 3 3 5 4 8 6l0 0c0 0 0 0 1 0 4 2 11 4 19 4 24 0 57-9 71-15 8-3 18-15 22-19l0-1c12-13 32-37 31-47 0-9-20-25-47-35-11-3-22-5-33-6z m379 658l0 0-1 1 0 0 0 0 0 1-1 0c-3 3-6 5-9 7-7 5-14 8-21 10-16 4-33 6-50 1-2-1-4-1-6-2l-4-2c-1-1-2-1-3-2l-2-1-1-1-1 0 0-1-1 0 0-1c-2-1-4-3-5-4-6-7-11-15-14-24-3-8-5-17-5-25 0-9 0-18 2-26 2-8 4-16 7-23 1-4 3-7 5-11 2-4 3-7 5-11 7-10 14-19 22-27 18-21 40-35 54-35 2 0 3 0 5 0 16 6 35 46 37 52 2 2 12 19 12 31 0 19-7 73-25 93z m6-120l0-1c-8-16-23-43-33-46 0-1-1-1-2-1-10 0-29 11-46 30-7 9-14 19-19 30-2 3-3 7-4 10-1 3-3 7-4 11-2 6-3 14-5 21-1 14-1 29 4 43 2 6 6 12 10 17 1 2 3 3 4 4l0 0 0 0 1 1 3 2c1 1 1 1 2 1l2 1c1 1 3 2 4 2 6 3 13 4 20 4 8 0 15 0 22-2 6-1 13-3 19-6 3-2 6-3 8-5l1-1c0 0 0 0 0 0 0 0 0 0 0 0 15-14 23-65 23-88 0-8-7-22-10-27z" horiz-adv-x="1000" />

<glyph glyph-name="nails" unicode="&#xe80b;" d="M844 39c-1 108-9 219-41 323-7 25-16 49-26 73-4 10-9 21-14 31-2 3-3 5-4 8-1 5 0 11 0 16-1 27-2 54-3 81-1 27-2 54-2 81-1 9-1 19-1 29 0 2-1 4-1 6 0 1 0 2 0 4 0 0-2 1-2 2-3 2-5 4-8 6-18 14-37 26-56 38-17 11-35 20-54 28-44 20-92 32-141 30-24 0-48-2-71-8-33-8-64-19-93-35-24-12-47-26-68-43-5-4-9-7-14-11-1-1-4-3-4-5-1-10-1-21-1-31 0-56 0-111 3-166 0-6 0-11 0-17 0-3-1-3-3-6 0-2-1-4-2-6-10-21-20-42-28-65-8-24-16-50-22-75-6-26-11-53-16-79-9-55-13-111-15-166-2-52-2-103 0-154 0-8 0-16 0-23 4 98 9 198 26 295 13 72 33 143 63 210 1-17 3-35 3-52 0-19 0-37 0-56 0-42 0-83 0-125 0-34 27-64 52-84 18-14 37-25 58-35 24-10 48-20 74-26 53-14 110-14 163-2 48 10 97 32 132 68 16 18 30 40 33 64 2 11 2 22 1 33 0 30 0 59 0 89-1 38-1 75-2 113 43-99 63-206 73-313 5-60 8-120 10-179 1 44 2 89 1 134 0 8 0-16 0 0z m-582 138c0 42 0 84 0 125 0 19 0 37 0 56 0 19 2 38 3 57 2 54 5 109 5 163 1 28 1 56 1 84 0 3 0 7 0 10 0 3-2 8 1 10 5 4 10 9 16 13 10 8 21 17 32 24 32 21 64 38 99 50 22 7 44 11 66 13 45 3 90-7 131-24 41-17 81-40 115-70 4-3 5-3 5-8 0-3 0-6 0-10-1-11-1-23-2-34-1-42-3-83-3-124-1-40-2-80-3-120 0-42-1-85-1-128-1-24-1-48-1-72 0-13 0-25-5-37-8-23-27-41-47-55-21-14-44-25-68-33-97-33-216-29-299 37-21 18-45 44-45 73z" horiz-adv-x="1000" />

<glyph glyph-name="shield" unicode="&#xe80c;" d="M917 591c-1 27-1 52-1 77 0 19-16 35-35 35-149 0-262 43-357 134-13 13-35 13-48 0-95-91-208-134-357-134-19 0-35-16-35-35 0-25 0-50-1-77-4-250-11-592 406-736 3-2 7-2 11-2 4 0 8 0 11 2 417 144 410 486 406 736l0 0z m-417-666c-357 129-352 414-347 665 0 15 1 30 1 44 139 6 251 48 346 131 95-83 207-125 346-131 1-14 1-29 1-44 5-251 10-536-347-665l0 0z m0 0m120 546l-168-168-72 72c-13 13-35 13-49 0-14-14-14-36 0-50l96-96c7-7 16-10 25-10 9 0 18 3 25 10l192 193c14 13 14 35 0 49-13 14-36 14-49 0l0 0z m0 0" horiz-adv-x="1000" />

<glyph glyph-name="tick" unicode="&#xe80d;" d="M967 680l-9 9c-32 32-85 32-117 0l-485-485-197 197c-32 32-85 32-117 0l-9-9c-32-33-32-85 0-117l264-264c16-16 38-24 59-24 22 0 43 8 59 24l552 552c32 32 32 84 0 117z" horiz-adv-x="1000" />

<glyph glyph-name="wallet" unicode="&#xe80e;" d="M855-58h-764c-49 0-89 40-89 89v638c0 49 40 89 89 89h764c49 0 89-40 89-89v-83c0-15-12-27-27-27s-27 12-27 27v83c0 19-16 34-35 34h-764c-19 0-35-15-35-34v-638c0-19 16-34 35-34h764c19 0 35 15 35 34v83c0 15 12 27 27 27s27-12 27-27v-83c0-49-40-89-89-89z m143 319v178c0 49-40 89-89 89h-271c-49 0-89-40-89-89v-178c0-49 40-89 89-89h271c49 0 89 40 89 89z m-89 212c19 0 35-15 35-34v-178c0-19-16-34-35-34h-271c-19 0-35 15-35 34v178c0 19 16 34 35 34h271z m-150-123c0 26-22 48-48 48l0 0c-27 0-48-22-48-48l0 0c0-26 21-48 48-48l0 0c26 0 48 22 48 48l0 0z" horiz-adv-x="1000" />

<glyph glyph-name="x" unicode="&#xe80f;" d="M667 350l282 282c42 43 42 112 0 155l-12 12c-43 42-112 42-155 0l-282-282-282 282c-43 42-112 42-155 0l-12-12c-42-43-42-112 0-155l282-282-282-282c-42-43-42-112 0-155l12-12c43-42 112-42 155 0l282 282 282-282c43-42 112-42 155 0l12 12c42 43 42 112 0 155l-282 282z" horiz-adv-x="1000" />

<glyph glyph-name="a-dashboard" unicode="&#xe810;" d="M500 813c124 0 240-48 328-135 87-88 135-204 135-328s-48-240-135-328c-88-87-204-135-328-135s-240 48-328 135c-87 88-135 204-135 328s48 240 135 328 204 135 328 135m0 22c-268 0-485-217-485-485 0-268 217-485 485-485 268 0 485 217 485 485 0 268-217 485-485 485l0 0z m0-579c-16 0-31 6-42 18-24 23-24 61 0 84 19 20 159 97 175 105 4 3 9 2 13-2 3-3 4-8 1-12-8-16-85-156-105-175-11-12-26-18-42-18z m111 171c-58-33-127-73-138-84-7-7-11-17-11-27s4-20 11-27 17-12 27-12 20 4 27 12c11 11 51 80 84 138z m-102 190v81c0 6-5 11-11 11-6 0-11-5-11-11v-81c0-6 5-11 11-11 6 0 11 5 11 11z m-79-20c6 1 10 7 8 13l-21 78c-2 6-7 10-13 8-6-1-9-7-8-13l21-79c2-4 6-8 11-8 1 0 2 1 2 1z m-62-27c5 3 7 10 4 15l-41 70c-3 5-9 7-15 4-5-3-6-9-3-14l40-71c2-3 6-5 9-5 2 0 4 0 6 1z m-54-41c4 4 4 10 0 15l-57 57c-5 4-11 4-16 0-4-4-4-11 0-15l58-57c2-3 5-4 8-4s5 1 7 4z m-41-55c3 5 1 12-4 15l-70 40c-5 3-12 2-15-3-3-6-1-12 4-15l70-41c2-1 4-1 6-1 3 0 7 2 9 5z m-26-63c2 6-1 12-7 13l-79 21c-5 2-11-2-13-7-1-6 2-12 8-13l78-21c1-1 2-1 3-1 5 0 9 3 10 8z m262 206v81c0 6-5 11-11 11-6 0-11-5-11-11v-81c0-6 5-11 11-11 6 0 11 5 11 11z m69-13l21 79c2 6-1 12-7 13-6 2-12-2-13-8l-21-78c-2-6 2-12 7-13 1 0 2-1 3-1 5 0 9 4 10 8z m65-30l40 71c3 5 1 11-4 14-5 3-11 1-14-4l-41-70c-3-5-1-12 4-15 2-1 3-1 5-1 4 0 8 2 10 5z m54-45l57 57c4 4 4 11 0 15-4 4-11 4-15 0l-57-57c-5-5-5-11 0-15 2-3 4-4 7-4s6 1 8 4z m40-59l71 41c5 3 7 9 4 15-3 5-10 6-15 3l-70-40c-6-3-7-10-4-15 2-3 5-5 9-5 2 0 4 0 5 1z m24-66l79 21c6 1 9 7 7 13-1 5-7 9-13 7l-78-21c-6-1-9-7-8-13 2-5 6-8 11-8 0 0 1 0 2 1z m99-61c0 6-4 11-10 11h-82c-5 0-10-5-10-11s5-10 10-10h82c6 0 10 5 10 10z m-12-93c1 5-2 11-8 13l-79 21c-5 1-11-2-13-8-1-6 2-11 8-13l78-21c1 0 2 0 3 0 5 0 9 3 11 8z m-689-5l78 22c6 1 9 7 8 13-2 5-7 9-13 7l-79-21c-5-1-9-7-7-13 1-5 5-8 10-8 1 0 2 0 3 0z m78 99c0 6-5 10-11 10h-81c-6 0-11-4-11-10s5-11 11-11h81c6 0 11 5 11 11z" horiz-adv-x="1000" />

<glyph glyph-name="a-procedures" unicode="&#xe811;" d="M500 813c124 0 240-48 328-135 87-88 135-204 135-328s-48-240-135-328c-88-87-204-135-328-135s-240 48-328 135c-87 88-135 204-135 328s48 240 135 328c88 87 204 135 328 135m0 22c-268 0-485-217-485-485 0-268 217-485 485-485 268 0 485 217 485 485 0 268-217 485-485 485l0 0z m-111-547h-16v163l10 0c0 0 0 0 0 0 6 0 11 5 11 11 0 6-5 10-11 10l-10 0v16l22 0c6 0 11 5 11 11 0 6-5 11-11 11l-22 0v16h27c5 0 10 5 10 11s-5 10-10 10h-27v17l22 0c6 0 11 4 11 10 0 6-5 11-11 11l-22 0v16l10 0c0 0 0 0 0 0 6 0 11 5 11 11 0 6-5 11-11 11l-21 0c0 0 0 0 0 0s0 0 0 0l-20 0c0 0 0 0 0 0-6 0-11-5-11-11 0-6 5-11 11-11l10 0v-16l-22 0c-6 0-11-5-11-11 0-6 5-10 11-10l22 0v-17h-27c-5 0-10-4-10-10s5-11 10-11h27v-16l-22 0c-6 0-11-5-11-11 0-6 5-11 11-11l22 0v-16l-10 0c0 0 0 0 0 0-6 0-11-4-11-10 0-6 5-11 11-11l10 0v-163h-16c-25 0-45-20-45-45v-119c0-25 20-45 45-45h53c25 0 45 20 45 45v119c0 25-20 45-45 45z m24-164c0-13-11-24-24-24h-53c-13 0-24 11-24 24v119c0 13 11 23 24 23h53c13 0 24-10 24-23v-119z m286 441c6 0 10 5 10 11s-4 11-10 11h-118v16h118c6 0 10 5 10 10s-4 11-10 11h-118-9-68c-28 0-51-23-51-51v-446c0-28 23-51 51-51h68 9 118c6 0 10 5 10 11s-4 10-10 10h-118v17h118c6 0 10 4 10 10s-4 11-10 11h-118v16h118c6 0 10 5 10 11s-4 11-10 11h-118v16h118c6 0 10 5 10 11s-4 10-10 10h-118v16h118c6 0 10 5 10 11s-4 11-10 11h-118v16h118c6 0 10 5 10 11s-4 10-10 10h-118v17h118c6 0 10 5 10 10s-4 11-10 11h-118v16h118c6 0 10 5 10 11s-4 11-10 11h-118v16h118c6 0 10 5 10 11s-4 10-10 10h-118v17l118 0c6 0 10 4 10 10s-4 11-10 11l-118 0v16h118c6 0 10 5 10 11s-4 11-10 11h-118v16h118c6 0 10 5 10 11s-4 10-10 10h-118v17l118 0c6 0 10 4 10 10s-4 11-10 11l-118 0v16h118z m-139-468h-56c-16 0-30 14-30 30v446c0 16 14 30 30 30h56v-506z" horiz-adv-x="1000" />

<glyph glyph-name="a-profile" unicode="&#xe812;" d="M500 813c124 0 240-48 328-135 87-88 135-204 135-328s-48-240-135-328c-88-87-204-135-328-135s-240 48-328 135c-87 88-135 204-135 328s48 240 135 328c88 87 204 135 328 135m0 22c-268 0-485-217-485-485 0-268 217-485 485-485 268 0 485 217 485 485 0 268-217 485-485 485l0 0z m143-494c19 27 30 61 30 96 0 96-78 175-175 175-96 0-174-79-174-175 0-36 11-70 30-97-84-51-135-142-135-240 0-6 4-11 10-11s11 5 11 11c0 92 49 176 128 223 32-37 78-60 130-60 53 0 100 24 132 61 81-46 130-132 130-225 0-6 5-10 11-10s11 4 11 10c0 100-53 191-139 242z m-145-56c-84 0-152 68-152 152s68 153 152 153 153-68 153-153-68-152-153-152z" horiz-adv-x="1000" />

<glyph glyph-name="a-reports" unicode="&#xe813;" d="M500 813c124 0 240-48 328-135 87-88 135-204 135-328s-48-240-135-328c-88-87-204-135-328-135s-240 48-328 135c-87 88-135 204-135 328s48 240 135 328 204 135 328 135m0 22c-268 0-485-217-485-485 0-268 217-485 485-485 268 0 485 217 485 485 0 268-217 485-485 485l0 0z m289-684c-19 8-43 20-58 33l8-22h-54v363c0 5-5 10-10 10s-11-5-11-10v-363h-26v320c0 6-5 10-11 10s-10-4-10-10v-320h-26v281c0 6-5 11-11 11s-10-5-10-11v-281h-26v243c0 6-5 11-11 11s-10-5-10-11v-243h-26v256c0 6-5 10-11 10s-11-4-11-10v-256h-25v230c0 6-5 11-11 11s-11-5-11-11v-230h-25v200c0 6-5 11-11 11s-11-5-11-11v-200h-25v179c0 6-5 10-11 10s-11-4-11-10v-179h-26v217c0 6-4 11-10 11s-11-5-11-11v-217h-22v422l22-8c-13 15-25 40-33 59-7-19-19-44-32-59l22 8v-433c0-6 4-10 10-10h485l-8-22c15 13 39 25 58 32z" horiz-adv-x="1000" />

<glyph glyph-name="a-reservations" unicode="&#xe814;" d="M500 813c124 0 240-48 328-135 87-88 135-204 135-328s-48-240-135-328c-88-87-204-135-328-135s-240 48-328 135c-87 88-135 204-135 328s48 240 135 328c88 87 204 135 328 135m0 22c-268 0-485-217-485-485 0-268 217-485 485-485 268 0 485 217 485 485 0 268-217 485-485 485l0 0z m-87-711c0-13-11-24-24-24h-53c-13 0-24 11-24 24v119c0 6 2 11 6 15l-16 15c-7-8-11-18-11-30v-119c0-25 20-45 45-45h53c25 0 45 20 45 45v45c-7 0-14 2-21 5v-50z m-40 327l10 0c0 0 0 0 0 0 6 0 11 5 11 11 0 6-5 10-11 10l-10 0v16l22 0c6 0 11 5 11 11 0 6-5 11-11 11l-22 0v16h27c5 0 10 5 10 11s-5 10-10 10h-27v17l22 0c6 0 11 4 11 10 0 6-5 11-11 11l-22 0v16l10 0c0 0 0 0 0 0 6 0 11 5 11 11 0 6-5 11-11 11l-21 0c0 0 0 0 0 0s0 0 0 0l-20 0c0 0 0 0 0 0-6 0-11-5-11-11 0-6 5-11 11-11l10 0v-16l-22 0c-6 0-11-5-11-11 0-6 5-10 11-10l22 0v-17h-27c-5 0-10-4-10-10s5-11 10-11h27v-16l-22 0c-6 0-11-5-11-11 0-6 5-11 11-11l22 0v-16l-10 0c0 0 0 0 0 0-6 0-11-4-11-10 0-6 5-11 11-11l10 0v-64l21-21v85z m326-149c6 0 10 5 10 10s-4 11-10 11h-59l-21-21h80z m0 37c6 0 10 5 10 11s-4 11-10 11h-21l-22-22h43z m-225 234c0 16 14 30 30 30h56v-197l30 30h-9v16h25l21 22h-46v16h63l21 21h-84v17l106 0c6 2 13 4 21 4 1 2 1 4 1 6 0 6-4 11-10 11l-118 0v16h118c6 0 10 5 10 11s-4 11-10 11h-118v16h118c6 0 10 5 10 10s-4 11-10 11h-118-9-68c-28 0-51-23-51-51v-274l21 21v253z m86-476h-56c-16 0-30 14-30 30v45c-7-2-14-4-21-4v-41c0-28 23-51 51-51h68 9 118c6 0 10 5 10 11s-4 10-10 10h-118v17h118c6 0 10 4 10 10s-4 11-10 11h-118v16h118c6 0 10 5 10 11s-4 11-10 11h-118v16h118c6 0 10 5 10 11s-4 10-10 10h-118v16h118c6 0 10 5 10 11s-4 11-10 11h-118v16h118c6 0 10 5 10 11s-4 10-10 10h-97l-42-42v-146z m139 280c6 0 10 5 10 11 0 1 0 2 0 4l-15-15h5z m-202-167l239 239c14 14 14 37 0 51-14 15-37 15-52 0l-238-238-130 131c-15 14-38 14-52 0-14-14-14-37 0-51l132-132c14-14 32-21 50-21 18 0 37 7 51 21z" horiz-adv-x="1000" />

<glyph glyph-name="a-reservations-2" unicode="&#xe815;" d="M500 813c124 0 240-48 328-135 87-88 135-204 135-328s-48-240-135-328c-88-87-204-135-328-135s-240 48-328 135c-87 88-135 204-135 328s48 240 135 328c88 87 204 135 328 135m0 22c-268 0-485-217-485-485 0-268 217-485 485-485 268 0 485 217 485 485 0 268-217 485-485 485l0 0z m-103-570c5-5 9-10 15-15-3 7-8 13-15 15z m16-141c0-13-11-24-24-24h-53c-13 0-24 11-24 24v119c0 13 11 23 24 23h35c-8 14-15 28-19 43v-21h-16c-25 0-45-20-45-45v-119c0-25 20-45 45-45h53c25 0 45 20 45 45v87c-7 4-14 8-21 13v-100z m-40 327l10 0c0 0 0 0 0 0 1 0 1 0 1 0 3 4 7 7 10 10 0 0 0 0 0 1 0 6-5 10-11 10l-10 0v16l22 0c6 0 11 5 11 11 0 6-5 11-11 11l-22 0v16h27c5 0 10 5 10 11s-5 10-10 10h-27v17l22 0c6 0 11 4 11 10 0 6-5 11-11 11l-22 0v16l10 0c0 0 0 0 0 0 6 0 11 5 11 11 0 6-5 11-11 11l-21 0c0 0 0 0 0 0s0 0 0 0l-20 0c0 0 0 0 0 0-6 0-11-5-11-11 0-6 5-11 11-11l10 0v-16l-22 0c-6 0-11-5-11-11 0-6 5-10 11-10l22 0v-17h-27c-5 0-10-4-10-10s5-11 10-11h27v-16l-22 0c-6 0-11-5-11-11 0-6 5-11 11-11l22 0v-16l-10 0c0 0 0 0 0 0-6 0-11-4-11-10 0-6 5-11 11-11l10 0v-60c4 16 12 32 21 46v14z m326-74c6 0 10 5 10 11s-4 10-10 10h-53c2-7 4-14 5-21h48z m0-75c6 0 10 5 10 10s-4 11-10 11h-48c-1-7-3-14-5-21h53z m-46 37h46c6 0 10 5 10 11s-4 11-10 11h-46c1-4 1-7 1-11 0-4 0-7-1-11z m-62-113h108c6 0 10 5 10 11s-4 11-10 11h-84c-7-8-15-15-24-22z m108 339c6 0 10 5 10 11s-4 11-10 11h-118v16h118c6 0 10 5 10 10s-4 11-10 11h-118-9-68c-28 0-51-23-51-51v-77c7 3 14 4 21 6v71c0 16 14 30 30 30h56v-111c7-3 14-7 21-11v9h118c6 0 10 5 10 11s-4 10-10 10h-118v17l118 0c6 0 10 4 10 10s-4 11-10 11l-118 0v16h118z m-84-113h84c6 0 10 5 10 11s-4 11-10 11h-108c9-7 17-14 24-22z m84-37c6 0 10 4 10 10s-4 11-10 11l-72 0c5-7 9-14 13-21l59 0z m0-151c6 0 10 5 10 11s-4 10-10 10h-59c-4-7-8-14-13-21h72z m-139-167h-56c-16 0-30 14-30 30v72c-7 1-14 3-21 5v-77c0-28 23-51 51-51h68 9 118c6 0 10 5 10 11s-4 10-10 10h-118v17h118c6 0 10 4 10 10s-4 11-10 11h-118v16h118c6 0 10 5 10 11s-4 11-10 11h-118v16h118c6 0 10 5 10 11s-4 10-10 10h-118v10c-7-5-14-8-21-12v-111z m-60 391c-76 0-138-62-138-138s62-138 138-138 138 62 138 138-62 138-138 138l0 0z m0-257c-66 0-119 53-119 119 0 66 53 120 119 120s120-54 120-120c0-66-54-119-120-119l0 0z m0 0m9 127v52c5-2 10-6 13-11 3-4 8-5 12-2 5 3 6 8 3 12-7 10-17 17-28 19v15c0 5-4 9-9 9-5 0-9-4-9-9v-15c-20-4-35-22-35-43s15-39 35-43v-51c-5 1-10 5-13 10-2 4-8 5-12 2-4-3-6-8-3-12 7-10 17-17 28-19v-15c0-5 4-9 9-9 5 0 9 4 9 9v15c20 4 35 22 35 43s-15 39-35 43l0 0z m-35 27c0 11 7 21 17 25v-49c-10 3-17 13-17 24l0 0z m35-94v48c10-3 17-13 17-24s-7-21-17-24l0 0z m0 0" horiz-adv-x="1000" />

<glyph glyph-name="arrow-d" unicode="&#xe816;" d="M975 610c-27 27-71 27-98 0l-377-374-377 374c-27 27-71 27-98 0-27-27-27-71 0-98l426-422c13-13 31-20 49-20 18 0 36 7 50 20l425 422c27 27 27 71 0 98z" horiz-adv-x="1000" />

<glyph glyph-name="arrow-l" unicode="&#xe817;" d="M662 825l-422-425c-13-14-20-32-20-50 0-18 7-36 20-49l422-426c27-27 71-27 98 0 27 27 27 71 0 98l-374 377 374 377c27 27 27 71 0 98-27 27-71 27-98 0z" horiz-adv-x="1000" />

<glyph glyph-name="arrow-r" unicode="&#xe818;" d="M240 825c-27-27-27-71 0-98l374-377-374-377c-27-27-27-71 0-98 27-27 71-27 98 0l422 426c13 13 20 31 20 49 0 18-7 36-20 50l-422 425c-27 27-71 27-98 0z" horiz-adv-x="1000" />

<glyph glyph-name="a-settings" unicode="&#xe819;" d="M494 813c124 0 240-48 328-135 88-88 136-204 136-328 0-124-48-240-136-328-88-87-204-135-328-135s-240 48-327 135c-88 88-136 204-136 328s48 240 136 328c87 87 204 135 327 135m0 22c-267 0-484-217-484-485 0-268 217-485 484-485s485 217 485 485c0 268-217 485-485 485l0 0z m-149-548c0-24 10-46 27-63 17-17 40-26 64-26h0c24 0 47 10 64 27 17 17 26 40 26 64 0 6-5 11-11 11-6 0-11-5-11-11 0-19-7-36-19-49-13-13-30-20-49-20-18 0-36 7-49 19-13 13-20 30-20 49 0 18 7 35 20 48 12 14 30 21 48 21 6 0 11 5 11 11 0 6-5 11-11 11-24-1-47-10-64-27-17-18-26-40-26-65z m91-85c0 0 0 0 0 0v0 0z m193 53l-25 11c-2 0-3 0-5 0-4 0-8-2-10-6-1-3-1-6 0-9 1-2 4-4 6-5l25-11c2-1 4-2 4-4 1-1 1-3 0-5l-11-28c-2-3-6-5-9-3l-25 10c-5 2-11 1-14-4-11-17-26-31-43-43-4-2-6-8-4-13l11-25c1-2 1-4 0-5-1-2-2-3-4-4l-27-11c-2-1-4-1-6 0-1 0-3 2-3 3l-11 26c-2 4-6 6-10 6-1 0-1 0-2 0-20-4-41-4-61 0-5 1-10-2-12-6l-10-26c-2-3-6-5-9-4l-28 12c-4 1-5 5-4 9l11 25c2 5 0 11-4 13-17 12-32 26-43 43-3 5-8 6-13 4l-26-10c-1-1-3-1-5 0-2 0-3 2-4 4l-11 27c-1 2-1 4 0 5 1 2 2 3 4 4l25 11c5 2 7 7 7 12-4 20-4 40 0 60 1 6-2 11-7 13l-25 10c-2 1-3 2-4 4-1 2-1 3 0 5l11 28c2 3 6 5 9 3l26-10c4-2 10 0 13 4 11 17 26 31 43 43 4 3 6 8 4 13l-11 25c0 2 0 4 0 6 1 1 2 3 4 3l27 12c2 0 4 0 6 0 2-1 3-2 4-4l10-25c2-5 6-7 10-7 1 0 3 0 4 1 3 1 5 3 6 6 1 2 1 5 0 8l-11 25c-2 7-8 13-15 16-7 3-15 3-22 0l-28-12c-7-3-12-8-15-15-3-7-3-15 0-22l7-17c-14-11-26-23-36-37l-18 7c-7 3-14 3-22 0-7-3-12-8-15-15l-11-28c-6-14 0-31 15-37l17-7c-2-17-2-35 0-52l-17-7c-7-3-12-8-15-15-3-7-3-15 0-22l11-28c3-7 9-12 16-15 7-3 15-3 22 0l17 7c10-14 22-26 36-37l-7-17c-3-7-3-15 0-22 3-7 9-12 16-15l27-12c4-1 7-2 11-2 12 0 22 7 27 18l7 17c17-3 34-3 51 0l7-17c3-7 9-13 16-16 3-1 7-2 11-2s7 1 11 2l27 12c7 3 13 8 16 15 3 7 3 15 0 22l-7 17c14 11 26 23 36 37l18-7c7-3 14-3 21 0 7 3 13 8 16 15l11 28c3 7 3 14 0 21-3 8-8 13-15 16z m-16 271c-37 0-66-29-66-66s29-66 66-66c36 0 66 30 66 66s-30 66-66 66z m0-110c-25 0-44 20-44 44 0 25 19 45 44 45 24 0 44-20 44-45 0-24-20-44-44-44z m139 79h-11c-3 11-8 21-13 31l8 8c4 5 7 11 7 17 0 6-3 12-7 17l-16 15c-4 5-10 7-17 7-6 0-12-2-16-7l-8-8c-10 6-21 10-32 13v11c0 13-10 24-23 24h-22c-13 0-24-11-24-24v-11c-11-3-21-7-31-13l-8 8c-5 5-11 7-17 7-6 0-12-2-17-7l-15-15c-5-5-7-11-7-17 0-7 2-13 7-17l8-8c-6-10-10-20-13-31h-11c-14 0-24-11-24-24v-22c0-13 10-23 24-23h11c3-11 7-22 13-32l-8-8c-5-4-7-10-7-17 0-6 2-12 7-16l15-16c5-4 11-7 17-7 6 0 12 3 17 7l8 8c10-5 20-10 31-13v-11c0-13 11-24 24-24h22c13 0 23 11 23 24v11c11 3 22 8 32 13l8-8c4-4 10-7 16-7 7 0 13 3 17 7l16 16c4 4 7 10 7 16 0 7-3 13-7 17l-8 8c5 10 10 20 13 32h11c13 0 24 10 24 23v22c0 13-11 24-24 24z m-31-56c-3-15-8-28-16-40-3-4-3-10 1-14l14-14c1 0 1-1 1-1 0-1 0-1-1-2l-15-15c-1-1-2-1-3 0l-14 14c-4 4-10 4-14 1-12-8-25-13-40-16-5-1-8-6-8-11v-20c0-1-1-2-3-2h-21c-1 0-2 1-2 2v20c0 5-4 10-9 11-14 3-28 8-40 16-2 2-4 2-6 2-3 0-5-1-7-3l-15-14c0-1-2-1-3 0l-15 15c0 1-1 1-1 2 0 0 1 1 1 1l14 14c4 4 4 10 2 14-9 12-14 26-17 40-1 5-5 9-11 9h-20c-1 0-2 0-2 2v21c0 2 1 2 2 2h20c6 0 10 4 11 9 3 15 9 28 17 40 2 4 2 10-2 14l-14 14c0 0-1 1-1 1 0 1 1 1 1 2l15 15c1 1 3 1 3 0l15-14c3-4 9-4 13-1 12 8 26 13 40 16 5 1 9 5 9 11v19c0 1 1 2 2 2h21c2 0 3-1 3-2v-20c0-5 3-9 8-10 15-3 28-9 40-17 4-3 10-2 14 2l14 14c1 1 2 1 3 0l15-16c0 0 1 0 1-1 0-1-1-1-1-2l-14-14c-4-3-4-9-1-13 8-12 13-26 16-40 1-5 6-9 11-9h20c1 0 2-1 2-2v-21l0-1c-1-1-1-2-2-2h-20c-5 0-10-3-11-8z" horiz-adv-x="1000" />

<glyph glyph-name="a-support" unicode="&#xe81a;" d="M500 813c124 0 240-48 328-135 87-88 135-204 135-328s-48-240-135-328c-88-87-204-135-328-135s-240 48-328 135c-87 88-135 204-135 328s48 240 135 328c88 87 204 135 328 135m0 22c-268 0-485-217-485-485 0-268 217-485 485-485 268 0 485 217 485 485 0 268-217 485-485 485l0 0z m0-308c98 0 177-79 177-177 0-98-79-177-177-177-31 0-62 8-89 24-5 3-11 5-18 5-13 0-28-5-44-10-6-2-12-4-18-5 2 5 4 11 6 15 9 24 18 45 9 61-15 27-23 57-23 87 0 98 79 177 177 177m0 21c-110 0-198-88-198-198 0-35 9-68 25-97 9-15-31-75-19-87 2-2 5-3 9-3 19 0 57 17 76 17 3 0 5 0 7-1 29-17 64-27 100-27 110 0 198 88 198 198 0 110-88 198-198 198l0 0z m19-134c0-5-2-9-6-12-3-3-8-5-13-5s-10 2-13 5c-4 3-6 7-6 12 0 5 2 9 6 12 3 3 8 5 13 5s10-2 13-5c4-3 6-7 6-12z m-3-141c0-4-1-8-4-10s-7-5-12-5c-5 0-9 2-12 5-3 2-5 6-5 10v94c0 4 2 8 5 11 3 3 7 4 12 4 5 0 8-1 12-4s4-7 4-11v-94z" horiz-adv-x="1000" />

<glyph glyph-name="bag" unicode="&#xe81b;" d="M899-13l-57 643c-1 14-13 25-27 25h-118c-2 107-89 194-197 194-108 0-195-87-197-194h-117c-15 0-27-11-28-25l-57-643c0-1 0-2 0-3 0-73 67-133 150-133h498c83 0 150 60 150 133 0 1 0 2 0 3l0 0z m-399 807c77 0 140-62 142-139h-284c2 77 65 139 142 139l0 0z m249-888h-498c-52 0-94 35-95 77l55 616h92v-83c0-15 12-28 27-28s28 13 28 28v83h284v-83c0-15 12-28 28-28 15 0 27 13 27 28v83h92l55-616c-1-42-43-77-95-77l0 0z m0 0" horiz-adv-x="1000" />

<glyph glyph-name="best-seller" unicode="&#xe81c;" d="M362 330h-17v163h10c6 0 11 5 11 11s-5 10-11 10h-10v17h23c5 0 10 4 10 10 0 6-5 11-10 11h-23v16h27c6 0 10 5 10 11s-4 11-10 11h-27v16h23c5 0 10 5 10 10 0 6-5 11-10 11h-23v16h10c6 0 11 5 11 11s-5 11-11 11h-20c0 0 0 0 0 0 0 0 0 0 0 0h-21c-6 0-11-5-11-11s5-11 11-11h10v-16h-22c-6 0-11-5-11-11 0-5 5-10 11-10h22v-16h-26c-6 0-11-5-11-11s5-11 11-11h26v-16h-22c-6 0-11-5-11-11 0-6 5-10 11-10h22v-17h-10c-6 0-11-4-11-10s5-11 11-11h10v-163h-16c-25 0-45-20-45-45v-119c0-25 20-45 45-45h54c24 0 44 20 44 45v119c0 25-20 45-44 45z m23-164c0-13-11-24-23-24h-54c-13 0-24 11-24 24v119c0 13 11 24 24 24h54c12 0 23-11 23-24v-119z m481 114c10 36 16 74 16 113 0 236-192 427-427 427-235 0-426-191-426-427 0-235 191-426 426-426 41 0 80 6 118 16 37-62 106-103 183-103 119 0 215 96 215 215 0 79-42 147-105 185z m-313-103v16h12c-3-5-5-10-7-16h-5z m57 75h-57v17h76c-6-5-13-11-19-17z m-20-21c-4-5-8-11-12-16h-25v16h37z m180-253v-21c0-7-7-13-14-13s-13 6-13 13v21c-17 4-32 14-42 29-4 6-2 14 4 18 6 4 15 3 19-4 4-7 11-12 19-15v77c-30 6-53 32-53 64 0 32 23 58 53 64v22c0 7 6 13 13 13s14-6 14-13v-22c16-3 31-13 41-28 4-6 2-14-4-19-6-4-15-2-19 4-4 7-11 12-18 15v-76c29-6 52-33 52-64 0-32-23-59-52-65z m64 318c-24 9-50 14-78 14-32 0-63-7-90-20h-113v16h118c6 0 11 5 11 11 0 6-5 11-11 11h-118v16h118c6 0 11 5 11 11s-5 10-11 10h-118v17h118c6 0 11 4 11 10s-5 11-11 11h-118v16h118c6 0 11 5 11 11s-5 11-11 11h-118v16l118 0c6 0 11 5 11 10s-5 11-11 11l-118 0v16h118c6 0 11 5 11 11s-5 11-11 11h-118v16h118c6 0 11 5 11 11 0 6-5 10-11 10h-118v17l118 0c6 0 11 4 11 10 0 6-5 11-11 11l-118 0v16h118c6 0 11 5 11 11s-5 11-11 11h-118v16h118c6 0 11 5 11 11 0 6-5 10-11 10h-118-9-68c-28 0-51-23-51-51v-446c0-28 23-51 51-51h67c-1-7-2-15-2-23 0-28 6-55 16-79-33-9-67-14-102-14-216 0-391 176-391 391 0 216 175 392 391 392s391-176 391-392c0-33-4-66-12-97z m-302 349v-506h-56c-16 0-30 14-30 30v446c0 16 14 30 30 30h56z m211-462v-72c-15 5-26 19-26 36 0 17 11 31 26 36z m52-140c0-17-11-31-25-37v73c14-6 25-20 25-36z" horiz-adv-x="1000" />

<glyph glyph-name="heart-3" unicode="&#xe81d;" d="M121 353c8-20-20-32-28-12-29 70-38 137-30 204 15 120 125 218 245 218 92 0 175-58 206-145 3-8-1-16-9-19-7-3-16 1-19 9-27 75-99 125-178 125-106 0-202-86-215-192-8-61 1-123 28-188z m619-213c-122-141-221-173-240-173-19 0-114 31-234 166-16 17-36 0-29-13 116-133 221-183 263-183 42 0 148 51 264 185 15 15-11 34-24 18z m197 405c-15 120-124 218-244 218-52 0-102-18-141-51-4-3-5-6-6-10 0-4 1-8 4-11 5-6 15-7 21-2 34 28 77 44 122 44 105 0 201-86 214-192 8-61-2-123-28-189-11-22 17-31 27-13 30 71 39 139 31 206z" horiz-adv-x="1000" />

<glyph glyph-name="heart-n" unicode="&#xe81e;" d="M500-73c-47 0-170 60-299 220-117 146-164 273-148 399 15 125 130 227 255 227 96 0 183-61 216-152 4-13-2-27-15-32-13-4-28 2-32 15-26 71-94 119-169 119-101 0-193-82-205-183-14-112 30-227 137-361 134-167 244-202 260-202 16 0 127 35 260 202 108 134 151 249 137 361-12 101-104 183-204 183-43 0-84-15-116-42-10-9-26-7-35 3-9 11-7 27 3 35 41 35 94 54 148 54 124 0 239-102 254-227 16-126-31-253-148-399-129-160-252-220-299-220z m-152 828" horiz-adv-x="1000" />

<glyph glyph-name="share" unicode="&#xe81f;" d="M752 227c-50 0-94-23-122-60l-237 132c6 16 9 34 9 51 0 18-3 35-9 51l237 132c28-36 72-60 122-60 84 0 154 69 154 154 0 85-69 154-154 154-85 0-154-69-154-154 0-18 3-35 8-51l-236-132c-28 37-72 60-122 60-85 0-154-69-154-154 0-85 69-154 154-154 50 0 94 24 123 61l236-132c-6-16-9-34-9-52 0-85 69-154 154-154 85 0 154 69 154 154 0 85-69 154-154 154l0 0z m0 505c58 0 106-47 106-105 0-59-48-106-106-106s-106 47-106 106c0 58 48 105 106 105l0 0z m-504-487c-58 0-105 47-105 105 0 59 47 106 105 106 59 0 106-47 106-106 0-58-48-105-106-105l0 0z m504-277c-58 0-106 47-106 106 0 58 48 105 106 105s106-47 106-105c0-59-48-106-106-106l0 0z" horiz-adv-x="1000" />

<glyph glyph-name="blog" unicode="&#xe820;" d="M189 337c69 25 134 26 196-10 89-51 129-158 95-254-35-98-135-155-239-138-96 17-171 105-173 205-1 110-1 221 0 331 1 39 6 81 59 82 53 0 61-40 62-82 1-43 0-87 0-134z m91-104c-49 0-91-41-90-89 0-49 42-90 90-90 50 1 90 41 90 90 0 49-41 89-90 89z m-5 474c-2-62 43-68 92-69 235-8 420-196 429-431 2-45 28-68 74-65 42 2 63 26 63 68 1 296-260 554-570 557-39 2-86 1-88-60z m0-209c-6-52 25-71 74-74 128-7 214-95 222-221 4-46 33-65 78-61 40 4 59 28 59 67-2 183-147 328-360 347-28 0-67-7-73-58z" horiz-adv-x="1000" />

<glyph glyph-name="body" unicode="&#xe821;" d="M304 802c11-18 19-36 27-55 10-23 19-46 27-71 8-25 13-50 18-75 5-26 7-54 4-79-6-54-35-100-59-146-13-23-25-47-33-73-8-24-11-48-12-73 0-1 0-2 0-3 2-21 2-46 4-68 2-27 5-54 9-81 6-48 15-96 24-143 0-1 0-2 0-3-17 43-32 87-44 132-15 52-22 105-27 158-5 47 7 94 26 136 22 48 55 92 72 142 8 25 10 51 9 78-2 26-5 53-9 79-8 48-21 96-35 142 0 1-1 2-1 3z m363-9c-22-43-40-88-53-134-7-25-13-51-16-77-3-27-4-53 1-79 11-51 40-95 64-141 12-23 23-47 30-72 5-21 7-41 7-63-1-21-2-46-3-68-2-27-6-54-9-81-6-48-16-96-24-143 0-1-1-2-1-3 18 43 32 87 45 132 14 52 22 105 27 158 4 46-7 93-26 134-22 49-56 93-72 144-9 25-10 51-9 78 2 26 5 53 9 79 8 48 20 96 35 142 0 1 0 2 0 3-1-3-3-6-5-9-3-6 4 6 0 0z m-104-515c-15-7-30-15-44-24-7-5-14-10-21-15-3-3-6-5-9-8-3 4-6 7-10 10-12 11-27 21-41 29-12 7-25 13-39 17 13-16 26-32 39-48 8-10 16-20 22-31 4-6 9-14 10-21 0 0 0 0 0 1 1-19 0-37 0-56-1-24-1-49 1-73 1-23 2-47 5-70 2-19 5-39 11-57-1 1 3 11 4 12 1 5 3 11 4 16 3 12 6 24 8 36 5 25 9 50 11 76 2 28 3 55 2 83 0 6 0 13-1 19 0 5-2 11 0 16 2 5 3 11 5 15 3 6 6 12 10 18 14 23 32 44 51 64-6-3-12-6-18-9-6-3 11 6 0 0z m-73 158c-15 0-15-24 0-24 16 0 16 24 0 24z" horiz-adv-x="1000" />

<glyph glyph-name="bow-tie" unicode="&#xe822;" d="M976 384c0 12-1 26-2 38-1 14-2 27-4 39-4 26-9 51-17 76-4 12-8 24-14 36-2 7-5 12-10 19-1 1-2 3-3 5-2 1-3 3-6 5-1 1-6 4-9 5-2 1-4 1-7 1-15 1-27-1-39-2-12-2-24-5-36-7-23-6-46-13-67-21-10-4-21-9-31-14-10-4-20-9-29-16-18-12-33-26-48-39-23-21-40-37-56-55-18 4-46 5-56 5-13 0-28-1-42-2-29-2-50-3-65-4-16-1-24-1-30-3-17 19-35 37-59 59-14 13-30 27-48 39-9 7-19 12-29 16-10 5-20 10-31 14-21 8-44 15-67 21-12 2-23 5-36 7-12 1-24 3-39 2-2 0-5 0-7-1-3-1-8-4-9-5-3-2-4-4-6-5-1-2-2-4-3-5-5-7-7-12-10-19-6-12-10-24-14-36-7-25-13-50-17-76-2-12-3-25-4-39-1-12-2-26-2-38-1-27-1-53 0-79 4-52 10-105 28-155 9-24 18-48 29-71 5-12 11-23 19-34 2-3 4-6 6-9 3-3 5-6 10-9 1-1 2-1 3-2 0 0 4-1 3-1l0 0 1 0 2 0c1-1 2-1 4-1 2 0 4 1 6 1 4 1 8 1 11 2 25 8 47 18 68 29 21 11 41 23 60 35 5 4 10 7 14 10 5 4 9 6 14 10 8 7 16 14 23 22 8 8 15 16 22 24 7 7 13 15 19 22 17 20 26 30 35 42 1 0 1 0 1 0l0 0 2-1 1 0 2-1c2 0 3 0 5-1 3 0 4 0 5 0l3 0c8 1 14 2 20 3 12 2 24 5 36 7 24 5 46 8 69 9 12 1 23 1 34 2 2 0 4 0 6 0 14-19 30-38 49-60 6-7 13-15 19-22 7-8 14-16 22-24 7-8 15-15 23-22 5-4 9-6 14-10 5-3 9-6 14-10 19-12 39-24 60-35 21-11 43-21 68-29 3-1 7-1 11-2 2 0 4-1 7-1 1 0 2 0 3 1l2 0 1 0 1 0c-2 0 2 1 2 1 1 1 2 1 3 2 5 3 8 6 10 9 2 3 4 6 6 9 8 11 14 22 19 34 11 23 21 47 29 71 18 50 24 103 28 155 1 26 1 52 0 79z m-878 194c0 0 0 0 0 0 0 0 0 0-1 0 1 0 0 0 1 0z m254-386c-7-6-15-13-22-19-7-7-15-14-23-20-7-6-16-12-25-19-7-6-16-13-25-19-17-12-36-23-57-34-20-10-41-20-62-26-3-1-5-1-7-2 0 0 0 0 0 0-1 1-1 1-2 2-1 2-3 4-4 6-7 9-12 20-17 31-11 21-20 45-28 68-16 46-23 96-26 147-1 25-1 50-1 76 1 12 2 24 2 37 1 12 3 25 5 37 3 24 9 48 16 71 3 12 7 23 12 33 2 5 5 10 7 14 1 1 2 2 2 3 0 0 1 0 1 0 0 0 1 0 1 0 9 1 21 0 32-2 11-2 22-4 33-6 22-6 43-12 63-20 10-4 20-8 29-13 9-5 18-9 27-14 17-9 34-20 49-31 26-18 45-33 65-49-1-1-2-2-2-2-1-2-2-3-3-5-1-3-2-5-4-8-4-12-8-23-10-35-1-5-2-11-3-16-2 1-5 2-7 3-6 2-12 4-19 6-7 3-14 4-21 6-7 2-15 3-23 4l-1 0 0 0-1 0h0l0 0-1 1-3 0-6 0-11 1c-8 0-16 0-24 0-7 0-15 0-22 0-14-1-27-2-38-4-23-2-81-9-81-9s58 3 81 0c11-2 23-4 37-6 7-2 14-3 21-5 6-2 13-3 20-5l11-4 5-2 2 0 2-1 0 0 0 0c1 0-1 0-1 0l1 0 0 0c6-3 13-6 18-9 6-3 12-5 17-9 5-3 11-5 14-9 1-2 1-4 2-6-2-4-4-9-8-12-4-3-10-5-15-8-1 0-3-1-3-2l-4-1-8-4c-11-4-21-8-31-12-10-4-20-9-28-11-16-6-44-14-44-14s29 5 46 6c9 1 19 2 30 3 10 2 22 3 33 4l9 1 4 1 5 1c6 1 11 2 17 4 9 2 18 3 25 5 1-4 1-7 2-11 2-13 5-25 10-39 0-2 1-4 2-6 1-1 1-2 2-3-11-12-21-22-39-39z m245 67l-1 0c-5 1-11 1-16 2-11 1-23 3-35 3-6 1-12 1-18 1-5 1-12 1-19 1-12 0-25-1-37-3-13-1-25-3-37-4-4-1-8-1-11-2-3 9-6 19-8 29-2 12-4 24-6 35-2 12-3 23-4 34 0 11 0 23 1 34 1 11 2 22 4 32 1 2 1 5 2 7 0 1 1 2 1 3 1 1 0 0 0 0 0 0 0 0 0 1 4 0 13 1 23 1 15 1 36 2 65 4 15 1 28 2 41 2 31 0 49-3 55-6 1-6 0-25 0-42-1-14-2-31-2-48 0-21 1-41 1-56 0-10 1-21 1-28z m349 48c-3-51-10-101-26-147-8-23-17-46-28-68-5-11-10-22-16-31-2-2-4-4-5-6-1-1-1-1-2-2 0 0 0 0 0 0-2 1-4 1-7 2-21 6-42 16-62 26-21 11-40 22-57 34-9 6-18 13-25 19-9 7-18 13-25 19-8 7-15 13-23 20-7 6-15 13-22 19-20 18-34 32-48 47 4 0 7 0 10 2 7 4 7 10 6 46 0 10-1 22-1 35 0 0 0-1 0-1 8-2 16-5 26-7 5-1 9-2 14-4 6-1 10-1 15-2 10-2 20-4 29-6 10-1 18-3 26-4 15-2 25-3 25-3s-10 4-23 9c-7 3-15 7-24 11-8 3-18 7-27 12-4 2-9 4-13 6-4 2-8 4-12 6-8 5-19 11-19 17 0 1 0 2 0 3 3 3 7 6 12 10 7 6 16 11 26 17 5 3 10 5 16 8 0 0 2 0 1 0l2 1 5 2 9 3c6 2 12 3 18 4 6 2 12 3 18 4 11 2 23 4 32 5 19 2 32 3 32 3s-13 2-32 3c-10 1-21 1-33 2-7 0-13 0-19 0-7-1-14-1-21-2l-9-1-5-1-2 0-3-1c-7-2-14-3-20-5-12-4-23-9-32-13-4-2-7-4-10-5 1 37 1 48-5 54 0 1-1 2-2 2 17 14 33 26 58 43 15 11 32 22 49 31 9 5 18 9 27 14 9 5 19 9 29 13 20 8 41 14 63 20 11 2 22 4 33 6 11 2 23 3 32 2 0 0 1 0 1 0 0 0 1 0 1 0 0-1 1-2 2-3 2-4 5-9 7-14 5-10 9-21 12-33 7-23 13-47 16-71 2-12 4-25 5-37 1-13 1-25 2-37 0-26 0-51-1-76z" horiz-adv-x="1000" />

<glyph glyph-name="facebook" unicode="&#xe823;" d="M730 809l-119 1c-134 0-221-89-221-227v-104h-120c-10 0-18-8-18-19v-151c0-10 8-18 18-18h120v-382c0-10 9-19 19-19h156c11 0 19 9 19 19v382h140c10 0 19 8 19 18l0 151c0 5-2 10-6 14-3 3-8 5-13 5h-140v88c0 43 10 65 65 65l81 0c10 0 18 8 18 18v141c0 10-8 18-18 18l0 0z m-211-459" horiz-adv-x="1000" />

<glyph glyph-name="instagram" unicode="&#xe824;" d="M671 773h-342c-139 0-252-113-252-252v-342c0-139 113-252 252-252h342c139 0 252 113 252 252v342c0 139-113 252-252 252l0 0z m167-594c0-92-75-167-167-167h-342c-92 0-167 75-167 167v342c0 92 75 167 167 167h342c92 0 167-75 167-167v-342z m0 0m-338 390c-121 0-219-98-219-219 0-121 98-219 219-219 121 0 219 98 219 219 0 121-98 219-219 219l0 0z m0-353c-74 0-134 60-134 134 0 74 60 134 134 134 74 0 134-60 134-134 0-74-60-134-134-134l0 0z m0 0m272 351c0-29-24-52-53-52-29 0-52 23-52 52 0 29 23 53 52 53 29 0 53-24 53-53l0 0z m0 0" horiz-adv-x="1000" />

<glyph glyph-name="phone" unicode="&#xe825;" d="M742 251c-17 17-38 27-60 27-21 0-42-9-60-27l-55-56c-5 3-9 5-14 7-6 4-12 7-17 10-52 33-99 76-145 132-22 27-36 51-47 74 14 14 28 27 41 40 4 5 9 10 14 15 37 37 37 85 0 122l-48 48c-5 5-11 11-16 17-11 10-22 22-33 32-17 17-37 26-59 26-21 0-42-9-60-26l0 0-60-60c-22-23-35-50-38-82-4-51 11-99 23-130 28-77 71-148 134-225 77-91 170-164 275-215 41-19 95-42 155-46 4 0 8 0 11 0 41 0 75 14 101 43 1 1 1 1 1 1 9 11 20 21 31 32 7 7 15 15 23 23 17 18 26 39 26 61 0 21-9 42-27 60l-96 97z m63-185c-1 0-1-1 0 0-7-8-14-14-22-22-11-11-23-22-34-35-17-19-38-28-66-28-2 0-5 0-8 0-52 4-101 24-137 41-99 49-187 117-259 203-60 73-100 139-127 211-16 44-22 78-19 110 1 21 9 38 24 52l60 60c8 8 18 13 26 13 12 0 20-7 26-13l1 0c10-10 21-21 31-32 6-5 11-11 17-17l48-48c19-18 19-35 0-54-5-5-10-10-15-15-15-15-29-29-44-43-1 0-1-1-1-1-15-15-12-30-9-40l0-1c13-31 30-59 57-93l0 0c49-60 100-106 156-142 7-5 15-8 22-12 6-3 12-6 17-9 1-1 2-1 2-1 6-3 12-5 18-5 14 0 23 9 26 12l60 60c6 6 16 14 27 14 11 0 20-7 25-13l97-97c19-18 19-37 1-55l0 0z m0 0m-271 502c46-7 88-29 121-63s55-75 63-121c2-11 12-20 23-20 2 0 3 1 4 1 13 2 22 14 20 27-10 56-36 107-76 147-41 40-91 66-147 76-13 2-25-7-27-19-3-13 6-26 19-28l0 0z m0 0m381-169c-15 92-59 175-125 242-66 66-150 109-242 125-12 2-24-7-27-19-2-13 7-26 20-28 82-14 156-53 216-112 59-59 98-134 112-216 1-11 11-19 23-19 1 0 3 0 4 0 13 2 22 14 19 27l0 0z m0 0" horiz-adv-x="1000" />

<glyph glyph-name="mail" unicode="&#xe826;" d="M849 701h-698c-62 0-112-50-112-113v-476c0-63 50-113 112-113h698c62 0 113 50 113 113v476c0 62-51 113-113 113l0 0z m61-589c0-34-27-62-61-62h-698c-33 0-61 28-61 62v476c0 34 28 61 61 61h698c33 0 61-27 61-61v-476h0z m0 0m-289 244l197 178c10 10 11 26 1 37-9 10-25 11-36 2l-282-256-61 55c0 0-1 0-1 0-1 2-2 3-4 4l-218 193c-10 10-27 9-36-2-10-11-9-27 2-36l199-177-200-186c-10-9-11-26-1-36 5-6 12-8 19-8 6 0 13 2 18 6l203 189 63-55c4-5 11-7 17-7 6 0 12 2 17 7l64 57 201-189c5-5 11-7 17-7 7 0 14 3 19 8 10 10 9 27-1 37l-197 186z m0 0" horiz-adv-x="1000" />

<glyph glyph-name="fit" unicode="&#xe827;" d="M733-16c0 2 0 5 0 7-1 3-1 6-1 8v171c0 22-18 39-39 39-12 0-23-5-30-14-7 9-18 14-30 14-21 0-39-17-39-39v-73h-221v73c0 22-18 39-39 39-12 0-23-5-30-14-7 9-18 14-30 14-21 0-39-17-39-39v-77c0-3 0-6 0-8-2-17-3-34-3-52-1-8-1-17-1-26l0-13 0-7 0-3 0-2 0-1 0 0 0-2 0-3 0-2c0-1 0-1 1-2 0-2 1-4 1-5 1-2 1-4 2-5 2-3 3-6 5-8l3-4c2-1 3-2 4-3 2-2 5-4 8-5 3-2 6-2 9-3 3-1 6-1 9-1l1 0c1 0-1 0 1 0l1 0 0 0 2 0 3 1c4 0 7 1 10 3 3 1 6 3 8 5 1 1 3 2 4 3l0 0c1-1 3-2 4-3 2-2 5-4 8-5 3-2 6-2 9-3 3-1 6-1 9-1l1 0c0 0-1 0 1 0l0 0 1 0 2 0 3 1c3 0 7 1 10 3 3 1 6 3 8 5 2 2 4 4 6 6l3 4c1 1 1 2 2 4 1 1 1 2 2 4l1 4c1 3 1 5 1 8 0 3 0 5 0 7 0 2 0 5-1 7 0 2 0 5 0 7v56h219c-1-7-1-14-1-21-1-8-1-17-1-26 0-4 0-9 0-13l0-7 0-3 0-2 0-1 0 0v-1l0-1 0-3 0-2c0-1 0-1 1-2 0-2 1-4 1-5 1-2 1-4 2-5 2-3 3-6 5-8 1-2 2-3 3-4 2-1 3-2 4-3 2-2 5-4 8-5 3-2 6-2 9-3 3-1 6-1 9-1l1 0c1 0-1 0 1 0l1 0 0 0 2 0 3 1c4 0 7 1 10 3 3 1 6 3 8 5 1 1 3 2 4 3 0 0 0 0 0 0 1-1 3-2 4-3 2-2 5-4 8-5 3-2 6-2 9-3 3-1 6-1 9-1l1 0c0 0-1 0 1 0l1 0 0 0 2 0 3 1c3 0 7 1 10 3 3 1 6 3 8 5 2 2 4 4 6 6l3 4c1 1 1 2 2 3 1 2 1 3 2 4l1 5c1 2 1 5 1 8 0 3 0 5 0 7z m-438 109c0-3 0-6-1-8-1-17-2-34-2-52-1-8-1-17-1-26l0-13 0-7 0-3 0-2 0-1 0 0 0-2 0-3 0-2c0 0 0-1 0-1l-1-2c0 0 0-1-1-1 0-1-1-1-1-2-1-1-2-1-3-2-1-1-3-1-4-2-1 0-1 0-2-1l-3 0-2 0c0 0 0 0 0 0l0 0c-1 0-3 0-4 1-1 0-2 0-3 1-1 1-2 1-3 2-1 1-1 1-2 2 0 0 0 1-1 1-1 1-1 2-2 3 0 1 0 1 0 2 0 0 0 0-1 0 0 0 0 1 0 2l0 1 0 3 0 0 0 1 0 2 0 3 0 7-1 13c0 9 0 18 0 26-1 18-2 35-3 52 0 2-1 5-1 8v77c0 12 10 21 21 21s21-9 21-21v-77z m60-95c0-2-1-5-1-7 0-2 0-5 0-7 0-2 0-4-1-5 0-2 0-3-1-4 0-1 0-1-1-2l-1-2c0 0 0-1-1-1 0-1-1-1-1-2-1-1-2-1-3-2-1-1-3-1-4-2-1 0-1 0-2-1l-4 0-1 0c0 0 0 0 0 0l0 0c-2 0-3 0-4 1-1 0-2 0-3 1-2 1-3 1-3 2-1 1-1 1-2 2 0 0-1 1-1 1-1 1-1 2-2 3 0 1 0 1 0 2 0 0-1 0-1 0 0 0 0 1 0 2l0 1 0 3 0 0 0 1 0 2 0 3-1 7 0 13c0 9 0 18 0 26-1 18-2 35-3 52-1 2-1 5-1 8v77c0 12 9 21 21 21s21-9 21-21v-172z m299 94c0-2 0-5-1-7-1-17-2-34-2-52-1-8-1-17-1-26 0-4 0-9 0-13l0-7 0-3 0-2 0-1 0 0v0l0-2 0-3 0-2c0 0 0-1 0-1l-1-2c0 0 0-1-1-1 0-1-1-1-1-2-1-1-2-1-3-2-1-1-3-1-4-2-1 0-1 0-2-1l-3 0-2 0c0 0 0 0 0 0l0 0c-1 1-3 0-4 1-1 0-2 0-3 1-1 1-2 1-3 2-1 1-1 1-2 2 0 0 0 1-1 1-1 1-1 2-2 3 0 1 0 1 0 2 0 0 0 0-1 0 0 0 0 1 0 2l0 1 0 3v0l0 1 0 2 0 3 0 7c0 4 0 9-1 13 0 9 0 18 0 26-1 18-2 35-3 52 0 2-1 5-1 7v78c0 12 10 21 21 21 12 0 21-9 21-21v-78z m60-93c0-2-1-5-1-8 0-2 0-5 0-7 0-2 0-4-1-5 0-2 0-3-1-4 0-1 0-1-1-2l-1-2c0 0 0-1-1-1 0-1-1-1-1-2-1-1-2-1-3-2-1-1-3-1-4-2-1 0-1 0-2-1l-4 0-1 0c0 0 0 0 0 0l0 0c-2 1-3 0-4 1-1 0-2 0-3 1-1 1-3 1-3 2-1 1-1 1-2 2 0 0-1 1-1 1-1 1-1 2-2 3 0 1 0 1 0 2 0 0-1 0-1 0 0 0 0 1 0 2l0 1 0 3v0l0 1 0 2 0 3-1 7c0 4 0 9 0 13 0 9 0 18 0 26-1 18-2 35-3 52-1 2-1 5-1 7v78c0 12 9 21 21 21s21-9 21-21v-171z m207 641c-14-1-27-2-41-4-13-1-26-3-40-5-26-5-53-10-79-17-13-4-26-8-39-12-13-5-26-9-38-15-13-5-25-11-38-17-12-7-24-14-36-22l-8-6-9-6-4-3-4-4c-3-2-6-5-8-7l-7-7-2-2-1 0 0-1 0 0-1 0 0-1-4-4c-5-6-9-11-14-17-8-12-15-25-21-38-6-13-10-27-13-41-5-28-5-57 0-84 3-14 6-27 10-40 2-6 5-13 7-19l-1 0-3-2c-1-1-2-2-3-3l-5-4c-2-1-4-2-6-3-2-2-4-3-6-4-3-2-5-3-7-4-2-1-4-2-6-3 0 0 0 0 0 0-3 1-6 2-9 4-5 2-11 5-16 8-11 6-22 12-32 20-20 14-37 32-51 52-13 21-22 44-26 68-1 6-1 13-2 19l0 4 0 2 0 0 0 0c0 0 0 0 0 0l0 0 0 3 0 10c1 12 2 25 4 37 2 13 5 25 9 38 4 12 8 24 12 37 5 12 10 24 15 36 6 12 12 24 18 35 12 24 25 46 39 69 7 11 14 22 21 33 7 9 13 18 20 27 4-5 8-10 12-15 5-7 11-14 16-21 5-7 10-14 15-21 5-7 10-14 14-22 5-7 10-14 14-21 5-8 9-15 14-23l6-11 6-11c4-8 8-16 12-23-4 7-7 15-11 23l-5 12-6 11c-4 8-9 16-13 23-4 8-8 15-13 23-4 7-9 15-13 22-5 8-10 15-15 22-4 7-9 14-14 22-5 7-10 14-16 21l-3 4-4-4c-9-11-17-21-25-32-8-10-15-21-23-32-15-22-30-45-43-68-7-11-13-23-19-35-6-12-12-24-17-37-5-12-10-25-15-38-4-13-8-26-11-39-3-13-5-27-6-41l-1-10 0-3 0 0 0-1 0-2 0-5c0-7 0-14 1-21 3-28 13-56 27-81 12-20 28-39 46-55l-4-1c-12-3-24-6-36-8-6-1-12-1-18-2l-10 0c-3 0-6-1-9 0-6 0-12 0-18 1l-9 1c-3 0-6 1-9 2-3 0-6 1-9 1l-8 3c-3 1-6 2-9 3l-8 4-5 1-2 1 0 1 0 0c0 0-1 0 0-1l0 1-1 0-9 5c-2 1-3 2-4 2l-4 3c-2 1-5 3-7 5l-7 5c-3 2-5 4-7 6l-4 3-1 1 0 0 0 1c0 0 1-1 0-1l0 1-2 2-7 7c-8 9-16 18-23 29-8 10-14 21-20 33-7 11-12 22-18 34-5 12-10 24-15 36-4 13-9 25-13 37-8 25-14 51-20 76-3 13-6 26-8 39-2 11-4 21-6 32 9-1 17-2 25-3 11-2 22-4 33-5l16-3c5-1 11-2 16-3 5-1 11-3 16-4 5-1 11-2 16-3l16-4 16-5c5-1 11-3 16-4 5-2 10-3 16-5l15-6c5-1 11-3 16-5 5-2 10-4 15-6l15-7-15 7c-5 3-10 5-15 7-5 2-10 5-15 7l-15 6c-5 2-11 3-16 5-5 2-10 4-16 6l-15 5-16 4c-6 2-11 3-16 5s-11 3-16 4c-6 1-11 3-16 4l-17 3c-10 3-21 5-32 7-11 2-22 4-33 5l-7 1 0-7c2-14 3-27 5-40 2-13 4-27 7-40 4-26 10-52 17-78 4-13 7-26 12-39 4-12 8-25 13-38 5-12 11-25 17-37 6-12 13-24 20-36 7-11 15-22 25-34l6-7 2-2 0 0 1-1 1-1 4-4c2-2 5-5 8-7l8-7c2-2 6-4 9-6l4-4c2-1 3-2 5-3l8-5 1 0 0-1 1 0 1 0 2-2 5-2 10-5c3-1 6-2 10-3l10-4c3-1 7-2 10-3 4-1 7-2 11-2l11-2c7-2 14-2 21-3 3 0 7 0 11 0l10 0c7 0 14 1 22 1 14 2 28 5 41 8l11 3 10 3c3 1 7 2 11 4 2-2 4-3 7-5 6-3 12-7 18-10 4-1 7-3 10-4 3-2 6-3 11-5l6-2 7 3 4 2 4 1c3 2 5 3 8 4 2 1 5 3 7 4 2 1 5 3 7 4 2 1 5 3 7 4l7 5c2 1 3 1 4 2l3 2 6 4c5-1 11-3 16-4 9-2 17-4 25-5 16-3 34-6 53-6 56 0 104 20 143 58 46 46 76 118 96 184 3 8 6 16 8 23 3 8 5 15 7 23 2 7 4 15 6 22 5 15 8 30 12 46 2 7 3 15 5 23 1 7 3 15 4 23l2 15-16-1z m-131-351c-36-37-82-56-136-56-16 0-32 2-45 5-10 2-20 5-29 8-6 2-11 4-16 6-4 1-8 3-11 5-4 11-8 23-10 35-3 12-5 25-6 38-2 25 0 50 7 74 3 12 8 23 13 33 6 11 13 21 20 30 4 5 8 10 12 14l4 3 0 1 0 0 1 0 2 2 7 7 7 5 3 3 4 3 8 5 7 5c6 3 11 7 16 10 6 3 11 6 17 9 11 6 23 11 35 16 11 5 23 10 35 14 12 5 25 9 37 13 12 4 25 8 37 11 13 4 25 7 38 10 13 3 25 6 38 9 8 2 15 3 23 5 0-2 0-4 0-6-1-8-2-15-3-23-2-15-4-30-6-45-3-15-6-31-9-46-2-9-4-18-7-27-19-64-49-133-93-176z" horiz-adv-x="1000" />

<glyph glyph-name="add" unicode="&#xe828;" d="M369 530c0-21-17-39-38-39-22 0-39 18-39 39s17 38 39 38c21 0 38-17 38-38z m62 38c-21 0-38-17-38-38s17-39 38-39c21 0 38 18 38 39s-17 38-38 38z m-301-97c-22 0-39-17-39-39 0-21 17-38 39-38 21 0 38 17 38 38 0 22-17 39-38 39z m100 0c-21 0-38-17-38-39 0-21 17-38 38-38 21 0 38 17 38 38 0 22-17 39-38 39z m101 0c-22 0-39-17-39-39 0-21 17-38 39-38 21 0 38 17 38 38 0 22-17 39-38 39z m-201-98c-22 0-39-17-39-39 0-21 17-38 39-38 21 0 38 17 38 38 0 22-17 39-38 39z m100 0c-21 0-38-17-38-39 0-21 17-38 38-38 21 0 38 17 38 38 0 22-17 39-38 39z m101 0c-22 0-39-17-39-39 0-21 17-38 39-38 21 0 38 17 38 38 0 22-17 39-38 39z m-201-101c-22 0-39-17-39-38 0-21 17-39 39-39 21 0 38 18 38 39 0 21-17 38-38 38z m100 0c-21 0-38-17-38-38 0-21 17-39 38-39 21 0 38 18 38 39 0 21-17 38-38 38z m747-55c0-169-138-307-307-307-101 0-191 50-246 126h-382c-10 0-19 8-19 18v671c0 10 9 18 19 18h203v29c0 10 8 18 18 18 10 0 18-8 18-18v-29h313v29c0 10 8 18 18 18 10 0 18-8 18-18v-29h204c10 0 18-8 18-18v-262c75-56 125-145 125-246z m-576-145c-24 43-37 92-37 145 0 66 21 128 58 178-17 4-29 19-29 37 0 22 17 39 38 39 17 0 31-11 36-26 21 19 44 34 69 47-2-1-3-1-5-1-21 0-38 18-38 39s17 38 38 38 39-17 39-38c0-12-5-22-13-29 13 5 26 10 40 13-2 5-3 10-3 16 0 21 17 38 38 38s38-17 38-38c0-3 0-5 0-7 0 0 0 0 0 0 9 0 17-1 25-1-1 2-1 5-1 8 0 21 17 38 38 38 22 0 39-17 39-38 0-8-3-16-7-22 18-6 35-13 51-22v221h-185v-32c0-10-8-18-18-18-10 0-18 8-18 18v32h-313v-32c0-10-8-18-18-18-10 0-18 8-18 18v32h-185v-635h341z m539 145c0 148-121 270-270 270-148 0-270-122-270-270 0-149 122-270 270-270 149 0 270 121 270 270z m-160 18h-91v91c0 10-9 18-19 18-10 0-18-8-18-18v-91h-91c-10 0-18-8-18-18 0-10 8-19 18-19h91v-91c0-10 8-18 18-18 10 0 19 8 19 18v91h91c10 0 18 9 18 19 0 10-8 18-18 18z" horiz-adv-x="1000" />

<glyph glyph-name="calendar" unicode="&#xe829;" d="M59-88h882c19 0 33 14 33 33v748c0 18-14 33-33 33h-166v29c0 19-15 33-34 33-18 0-33-14-33-33v-29h-410v29c0 19-15 33-34 33-18 0-33-14-33-33v-29h-172c-18 0-33-15-33-33v-749c0-18 15-32 33-32l0 0z m34 747h138v-18c0-19 15-33 33-33 19 0 34 14 34 33v18h410v-18c0-19 15-33 33-33 19 0 34 14 34 33v18h133v-86h-815v86z m0-153h814v-528h-814v528z m0 0m648-154h-481c-19 0-34-15-34-33s15-34 34-34h481c19 0 34 15 34 34s-15 33-34 33l0 0z m0 0m-241-162h-240c-19 0-34-14-34-33s15-34 34-34h240c19 0 34 15 34 34s-15 33-34 33l0 0z m0 0" horiz-adv-x="1000" />

<glyph glyph-name="clock" unicode="&#xe82a;" d="M500-115c-256 0-465 209-465 465 0 256 209 465 465 465 256 0 465-209 465-465 0-256-209-465-465-465z m0 843c-209 0-378-169-378-378 0-209 169-378 378-378 209 0 378 169 378 378 0 209-169 378-378 378z m173-462c-33 26-66 53-99 80-8 6-15 12-23 18-1 1-8 5-8 7 0 11 0 23 0 34 0 53 0 106 0 158 0 21 0 42 0 63 0 5 0 10 0 15 0 12-4 23-12 32-14 13-36 16-53 6-13-7-21-22-21-37 0-12 0-23 0-34 0-53 0-105 0-157 0-34 0-67 0-101 0-14 6-26 17-34 5-4 9-8 14-12 19-16 39-31 58-47 20-16 39-32 58-47 4-4 9-7 13-11 14-11 33-13 48-5 27 14 31 52 8 72z" horiz-adv-x="1000" />

<glyph glyph-name="delete" unicode="&#xe82b;" d="M857 655h-178v29c0 52-42 94-94 94h-170c-51 0-94-42-94-94v-29h-178c-13 0-23-11-23-24 0-13 10-24 23-24h43v-558c0-70 57-127 127-127h374c70 0 127 57 127 127v558h43c13 0 24 11 24 24 0 13-11 24-24 24l0 0z m-488 29c0 25 21 46 46 46h170c25 0 46-21 46-46v-29h-262v29z m397-635c0-44-35-79-79-79h-374c-44 0-79 35-79 79v558h533v-558h-1z m-266 6c13 0 24 10 24 24v419c0 14-11 24-24 24s-24-10-24-24v-419c0-13 11-24 24-24l0 0z m-155 26c13 0 24 11 24 24v367c0 14-11 24-24 24-13 0-24-10-24-24v-367c0-13 11-24 24-24l0 0z m310 0c13 0 24 11 24 24v367c0 14-11 24-24 24-13 0-24-10-24-24v-367c0-13 11-24 24-24l0 0z" horiz-adv-x="1000" />

<glyph glyph-name="x-app" unicode="&#xe82c;" d="M554 350l362 363c15 14 15 38 0 53s-39 15-53 0l-363-362-362 362c-15 15-39 15-54 0s-15-39 0-53l362-363-362-363c-15-14-15-38 0-53 7-8 17-11 27-11 9 0 19 3 27 11l362 362 363-362c7-8 17-11 26-11s20 3 27 11c15 15 15 39 0 53l-362 363z" horiz-adv-x="1000" />

<glyph glyph-name="arrow-l-1" unicode="&#xe82d;" d="M1329 416h-1098l309 311c27 27 27 71 0 98-27 27-71 27-98 0l-422-425c-13-14-20-32-20-50 0 0 0 0 0 0 0 0 0 0 0 0 0-18 7-36 20-49l422-426c27-27 71-27 98 0 27 27 27 71 0 98l-309 311h1098c36 0 65 30 65 66s-29 66-65 66z" horiz-adv-x="1394" />
</font>
</defs>
</svg>
